#!OML:ASF I:\Actors\actors\Patient Classification 2\Patient 1\Session 1\actor1.ASF
:FULLY-SPECIFIED
:DEGREES
255
root -0.76366 18.8116 4.14589 7.10536 -3.43429 -1.42792
lowerback 12.4368 1.13752 -0.771867
upperback 2.96588 1.40918 0.206864
thorax -3.88326 0.700423 0.432312
lowerneck -0.633633 -1.74914 1.07893
upperneck 8.9266 -2.55607 2.23717
head 2.96956 -1.15889 0.463415
rclavicle 1.88348e-014 -5.96354e-015
rhumerus 21.5963 26.8648 -31.2767
rradius 131.794
rwrist -59.6404
rhand -2.88412 -53.5504
rfingers 7.12502
rthumb 22.8252 -82.2199
lclavicle 1.88348e-014 -5.96354e-015
lhumerus -49.2977 -9.55115 84.6019
lradius 61.7244
lwrist 6.09392
lhand -8.01594 -30.3806
lfingers 7.12502
lthumb 17.8935 -1.18373
rfemur -2.06092 2.15082 15.4685
rtibia 7.15625e-015
rfoot -12.2417 -12.7265
rtoes -7.03469
lfemur -13.4891 -1.92191 -12.3736
ltibia 23.6148
lfoot -19.0106 10.0591
ltoes -56.1705
256
root -0.76737 18.8048 4.10143 7.18959 -3.51864 -1.42952
lowerback 12.8901 1.06639 -1.00379
upperback 3.11291 1.28381 0.282089
thorax -3.9823 0.639772 0.654983
lowerneck -0.0358289 -1.66501 0.900434
upperneck 8.46531 -2.41201 2.20142
head 2.70368 -1.1043 0.491907
rclavicle 5.31749e-015 3.8763e-015
rhumerus 20.0685 26.9365 -33.2955
rradius 132.117
rwrist -58.3256
rhand -1.60633 -53.7163
rfingers 7.12502
rthumb 24.0509 -82.2293
lclavicle 5.31749e-015 3.8763e-015
lhumerus -49.3435 -9.41983 84.6442
lradius 62.0587
lwrist 6.22688
lhand -7.83753 -30.5008
lfingers 7.12502
lthumb 18.0652 -1.31971
rfemur -2.3291 2.23026 15.4791
rtibia -4.77083e-015
rfoot -12.066 -12.8824
rtoes -7.26983
lfemur -13.952 -1.59418 -12.3453
ltibia 24.0179
lfoot -18.9201 9.87689
ltoes -56.2075
257
root -0.766348 18.7969 4.06295 7.29109 -3.63495 -1.34196
lowerback 13.2692 1.06842 -1.20734
upperback 3.27891 1.25318 0.256065
thorax -4.01829 0.625086 0.743118
lowerneck 0.338125 -1.65128 0.777927
upperneck 8.05465 -2.38082 2.29882
head 2.50108 -1.09725 0.547961
rclavicle 6.21202e-015 -2.38542e-015
rhumerus 20.2225 26.7723 -33.636
rradius 132.392
rwrist -57.7973
rhand -1.57881 -53.7728
rfingers 7.12502
rthumb 24.0773 -82.2822
lclavicle 6.21202e-015 -2.38542e-015
lhumerus -49.2672 -9.43796 84.5063
lradius 62.7688
lwrist 4.79752
lhand -6.91975 -28.6828
lfingers 7.12502
lthumb 18.948 0.41434
rfemur -2.6085 2.32478 15.3596
rtibia 7.95139e-016
rfoot -11.9432 -12.9806
rtoes -7.39244
lfemur -14.4092 -1.30941 -12.4389
ltibia 24.4158
lfoot -18.8767 9.69847
ltoes -56.1956
258
root -0.763406 18.7876 4.02696 7.41759 -3.72384 -1.25264
lowerback 13.6244 1.10223 -1.35223
upperback 3.44903 1.27023 0.205115
thorax -4.03561 0.633193 0.764711
lowerneck 0.486695 -1.67761 0.703046
upperneck 7.69826 -2.41272 2.44518
head 2.35978 -1.11667 0.607992
rclavicle -2.31087e-014 1.41137e-014
rhumerus 22.4289 26.4011 -31.9915
rradius 132.731
rwrist -57.6883
rhand -3.13873 -53.7232
rfingers 7.12502
rthumb 22.5808 -82.4226
lclavicle -2.31087e-014 1.41137e-014
lhumerus -49.1057 -9.76542 84.5082
lradius 63.1205
lwrist 4.51226
lhand -6.72112 -27.9959
lfingers 7.12502
lthumb 19.139 1.08244
rfemur -2.90618 2.38826 15.2294
rtibia -7.95139e-016
rfoot -11.8337 -13.0587
rtoes -7.54214
lfemur -14.8772 -0.975496 -12.5477
ltibia 24.7874
lfoot -18.8015 9.47689
ltoes -56.276
259
root -0.761219 18.7797 3.9934 7.56638 -3.76612 -1.23356
lowerback 13.9827 1.10088 -1.41881
upperback 3.54763 1.25129 0.165354
thorax -4.12684 0.623789 0.759093
lowerneck 0.67591 -1.67504 0.643932
upperneck 7.30052 -2.40395 2.58917
head 2.19798 -1.11666 0.665434
rclavicle -8.99501e-015 -2.48481e-015
rhumerus 22.485 26.3205 -32.2717
rradius 132.985
rwrist -56.3455
rhand -3.51386 -53.4453
rfingers 7.12502
rthumb 22.2207 -82.188
lclavicle -8.99501e-015 -2.48481e-015
lhumerus -49.0374 -10.1096 84.5298
lradius 63.2067
lwrist 4.56523
lhand -6.92392 -28.0661
lfingers 7.12502
lthumb 18.944 1.03135
rfemur -3.20742 2.41336 15.1804
rtibia 2.38542e-015
rfoot -11.7642 -13.0961
rtoes -7.40667
lfemur -15.3389 -0.700862 -12.573
ltibia 25.1171
lfoot -18.7506 9.2994
ltoes -56.4149
260
root -0.758704 18.7744 3.96344 7.69732 -3.76306 -1.23324
lowerback 14.321 1.13259 -1.41399
upperback 3.63862 1.28574 0.121011
thorax -4.21454 0.640231 0.699219
lowerneck 0.756198 -1.72772 0.71022
upperneck 6.94116 -2.46583 2.62093
head 2.0663 -1.15004 0.663999
rclavicle -8.15017e-015 -1.39149e-015
rhumerus 22.417 26.0419 -32.5146
rradius 133.196
rwrist -55.6817
rhand -3.67694 -53.4893
rfingers 7.12502
rthumb 22.0642 -82.2505
lclavicle -8.15017e-015 -1.39149e-015
lhumerus -48.9155 -10.4856 84.5522
lradius 63.1527
lwrist 4.25519
lhand -7.15116 -28.3617
lfingers 7.12502
lthumb 18.7254 0.756975
rfemur -4.35791 2.39853 15.1555
rtibia 1.77754
rfoot -12.4186 -12.5897
rtoes -7.13084
lfemur -15.7474 -0.563545 -12.5728
ltibia 25.3929
lfoot -18.7394 9.20481
ltoes -56.4664
261
root -0.756168 18.7705 3.93652 7.83468 -3.76074 -1.1851
lowerback 14.5605 1.19085 -1.46821
upperback 3.75058 1.34973 0.106826
thorax -4.22885 0.67122 0.700628
lowerneck 0.725523 -1.79031 0.777549
upperneck 6.60759 -2.53744 2.55066
head 1.96161 -1.18945 0.629491
rclavicle -2.18663e-015 -2.38542e-015
rhumerus 22.3913 25.6327 -32.6879
rradius 133.401
rwrist -55.5389
rhand -3.57285 -53.9183
rfingers 7.12502
rthumb 22.1641 -82.6678
lclavicle -2.18663e-015 -2.38542e-015
lhumerus -48.7003 -10.7342 84.6085
lradius 63.0633
lwrist 4.0144
lhand -7.19034 -28.4716
lfingers 7.12502
lthumb 18.6878 0.650722
rfemur -5.60598 2.3762 15.0785
rtibia 3.76157
rfoot -13.1435 -12.0346
rtoes -6.83125
lfemur -16.1247 -0.529926 -12.6246
ltibia 25.6196
lfoot -18.7381 9.18468
ltoes -56.3927
262
root -0.754807 18.7676 3.91284 7.992 -3.78913 -1.15447
lowerback 14.6842 1.23536 -1.58685
upperback 3.80958 1.38913 0.118424
thorax -4.23752 0.690915 0.771149
lowerneck 0.878143 -1.78728 0.781379
upperneck 6.20293 -2.52022 2.55601
head 1.80363 -1.18698 0.632554
rclavicle 8.24956e-015 -6.06293e-015
rhumerus 22.3463 25.4272 -32.9017
rradius 133.628
rwrist -55.1621
rhand -3.7158 -54.1591
rfingers 7.12502
rthumb 22.0269 -82.9248
lclavicle 8.24956e-015 -6.06293e-015
lhumerus -48.5923 -10.7979 84.6699
lradius 62.8229
lwrist 4.41311
lhand -7.2834 -28.9551
lfingers 7.12502
lthumb 18.5982 0.175805
rfemur -6.29357 2.38524 15.0256
rtibia 4.60817
rfoot -13.3984 -11.8273
rtoes -6.69154
lfemur -16.4748 -0.48126 -12.655
ltibia 25.8021
lfoot -18.7372 9.16348
ltoes -56.3207
263
root -0.752593 18.7652 3.89305 8.10584 -3.78678 -1.21703
lowerback 14.8004 1.26514 -1.61941
upperback 3.89209 1.42322 0.15476
thorax -4.21601 0.707074 0.820328
lowerneck 0.924749 -1.78678 0.870796
upperneck 5.81177 -2.50565 2.48529
head 1.66702 -1.18449 0.596649
rclavicle 2.25124e-014 -1.2921e-015
rhumerus 22.3135 25.1577 -33.0552
rradius 133.833
rwrist -54.506
rhand -4.12096 -54.0892
rfingers 7.12502
rthumb 21.6378 -82.9001
lclavicle 2.25124e-014 -1.2921e-015
lhumerus -48.4546 -10.8256 84.7374
lradius 62.4218
lwrist 5.25845
lhand -7.60345 -29.9818
lfingers 7.12502
lthumb 18.2904 -0.821677
rfemur -6.73983 2.38252 15.0833
rtibia 5.11002
rfoot -13.5101 -11.7137
rtoes -6.77333
lfemur -16.741 -0.371915 -12.5863
ltibia 25.9359
lfoot -18.7246 9.07603
ltoes -56.2669
264
root -0.748407 18.7639 3.8773 8.12687 -3.74704 -1.29417
lowerback 14.9898 1.28107 -1.55496
upperback 3.97845 1.45084 0.165357
thorax -4.22678 0.719555 0.787489
lowerneck 0.926226 -1.81118 1.07337
upperneck 5.42647 -2.52057 2.29056
head 1.5375 -1.1962 0.502951
rclavicle -1.2424e-014 3.57812e-015
rhumerus 22.2578 24.7741 -33.2301
rradius 133.986
rwrist -53.848
rhand -4.3674 -54.0174
rfingers 7.12502
rthumb 21.4011 -82.8554
lclavicle -1.2424e-014 3.57812e-015
lhumerus -48.3415 -10.8308 84.7164
lradius 62.1622
lwrist 5.64174
lhand -7.74279 -30.4389
lfingers 7.12502
lthumb 18.1563 -1.26625
rfemur -6.97565 2.35267 15.1622
rtibia 5.44386
rfoot -13.553 -11.6263
rtoes -7.09913
lfemur -16.8709 -0.327059 -12.5089
ltibia 26.0219
lfoot -18.7055 9.04569
ltoes -56.2509
